<mxfile host="app.diagrams.net" modified="2021-02-07T16:29:36.060Z" agent="5.0 (X11; Linux x86_64) AppleWebKit/537.36 (KHTML, like Gecko) Chrome/85.0.4183.102 Safari/537.36" etag="46DtZmu5I7xPQ9Zk_n1X" version="14.2.9" type="github">
  <diagram id="DdIetW-X2uSwDN8RUAyO" name="Page-1">
    <mxGraphModel dx="1422" dy="736" grid="1" gridSize="10" guides="1" tooltips="1" connect="1" arrows="1" fold="1" page="1" pageScale="1" pageWidth="850" pageHeight="1100" math="0" shadow="0">
      <root>
        <mxCell id="0" />
        <mxCell id="1" parent="0" />
        <mxCell id="dk-D-w5EVYptJBroVGNK-24" value="" style="rounded=0;whiteSpace=wrap;html=1;" vertex="1" parent="1">
          <mxGeometry x="310" y="270" width="470" height="420" as="geometry" />
        </mxCell>
        <mxCell id="dk-D-w5EVYptJBroVGNK-3" value="" style="rounded=0;whiteSpace=wrap;html=1;" vertex="1" parent="1">
          <mxGeometry x="50" y="40" width="750" height="220" as="geometry" />
        </mxCell>
        <mxCell id="dk-D-w5EVYptJBroVGNK-4" value="" style="rounded=0;whiteSpace=wrap;html=1;" vertex="1" parent="1">
          <mxGeometry x="50" y="260" width="750" height="220" as="geometry" />
        </mxCell>
        <mxCell id="dk-D-w5EVYptJBroVGNK-5" value="" style="rounded=0;whiteSpace=wrap;html=1;" vertex="1" parent="1">
          <mxGeometry x="50" y="480" width="750" height="220" as="geometry" />
        </mxCell>
        <mxCell id="dk-D-w5EVYptJBroVGNK-6" value="" style="rounded=0;whiteSpace=wrap;html=1;" vertex="1" parent="1">
          <mxGeometry x="320" y="70" width="450" height="170" as="geometry" />
        </mxCell>
        <mxCell id="dk-D-w5EVYptJBroVGNK-7" value="" style="rounded=0;whiteSpace=wrap;html=1;" vertex="1" parent="1">
          <mxGeometry x="410" y="120" width="305" height="100" as="geometry" />
        </mxCell>
        <mxCell id="dk-D-w5EVYptJBroVGNK-8" value="Web App Client" style="rounded=0;whiteSpace=wrap;html=1;" vertex="1" parent="1">
          <mxGeometry x="510" y="130" width="120" height="60" as="geometry" />
        </mxCell>
        <mxCell id="dk-D-w5EVYptJBroVGNK-9" value="Credit Card details" style="rounded=0;whiteSpace=wrap;html=1;" vertex="1" parent="1">
          <mxGeometry x="140" y="130" width="100" height="60" as="geometry" />
        </mxCell>
        <mxCell id="dk-D-w5EVYptJBroVGNK-10" value="" style="rounded=0;whiteSpace=wrap;html=1;" vertex="1" parent="1">
          <mxGeometry x="320" y="310" width="450" height="170" as="geometry" />
        </mxCell>
        <mxCell id="dk-D-w5EVYptJBroVGNK-11" value="Web App Core" style="rounded=0;whiteSpace=wrap;html=1;" vertex="1" parent="1">
          <mxGeometry x="510" y="370" width="120" height="60" as="geometry" />
        </mxCell>
        <mxCell id="dk-D-w5EVYptJBroVGNK-13" value="" style="rounded=0;whiteSpace=wrap;html=1;" vertex="1" parent="1">
          <mxGeometry x="320" y="480" width="450" height="200" as="geometry" />
        </mxCell>
        <mxCell id="dk-D-w5EVYptJBroVGNK-15" value="Syslog" style="rounded=0;whiteSpace=wrap;html=1;" vertex="1" parent="1">
          <mxGeometry x="330" y="565" width="80" height="50" as="geometry" />
        </mxCell>
        <mxCell id="dk-D-w5EVYptJBroVGNK-16" value="DWS" style="rounded=0;whiteSpace=wrap;html=1;" vertex="1" parent="1">
          <mxGeometry x="445" y="565" width="80" height="50" as="geometry" />
        </mxCell>
        <mxCell id="dk-D-w5EVYptJBroVGNK-17" value="Keycloak" style="rounded=0;whiteSpace=wrap;html=1;" vertex="1" parent="1">
          <mxGeometry x="560" y="565" width="90" height="50" as="geometry" />
        </mxCell>
        <mxCell id="dk-D-w5EVYptJBroVGNK-18" value="&lt;font style=&quot;font-size: 14px&quot;&gt;&lt;b&gt;Composite Application&lt;/b&gt;&lt;/font&gt;" style="text;html=1;strokeColor=none;fillColor=none;align=center;verticalAlign=middle;whiteSpace=wrap;rounded=0;" vertex="1" parent="1">
          <mxGeometry x="80" y="60" width="40" height="20" as="geometry" />
        </mxCell>
        <mxCell id="dk-D-w5EVYptJBroVGNK-19" value="&lt;font style=&quot;font-size: 14px&quot;&gt;&lt;b&gt;Microservices&lt;/b&gt;&lt;/font&gt;" style="text;html=1;strokeColor=none;fillColor=none;align=center;verticalAlign=middle;whiteSpace=wrap;rounded=0;" vertex="1" parent="1">
          <mxGeometry x="80" y="280" width="40" height="20" as="geometry" />
        </mxCell>
        <mxCell id="dk-D-w5EVYptJBroVGNK-20" value="&lt;font style=&quot;font-size: 14px&quot;&gt;&lt;b&gt;Data Repository&lt;/b&gt;&lt;/font&gt;" style="text;html=1;strokeColor=none;fillColor=none;align=center;verticalAlign=middle;whiteSpace=wrap;rounded=0;" vertex="1" parent="1">
          <mxGeometry x="80" y="500" width="40" height="20" as="geometry" />
        </mxCell>
        <mxCell id="dk-D-w5EVYptJBroVGNK-21" value="Database&lt;br&gt;mySQL 5.7" style="rounded=0;whiteSpace=wrap;html=1;" vertex="1" parent="1">
          <mxGeometry x="660" y="520" width="80" height="50" as="geometry" />
        </mxCell>
        <mxCell id="dk-D-w5EVYptJBroVGNK-22" value="&lt;b&gt;&lt;font style=&quot;font-size: 13px&quot;&gt;Web&lt;/font&gt;&lt;/b&gt;" style="text;html=1;strokeColor=none;fillColor=none;align=center;verticalAlign=middle;whiteSpace=wrap;rounded=0;" vertex="1" parent="1">
          <mxGeometry x="510" y="80" width="40" height="20" as="geometry" />
        </mxCell>
        <mxCell id="dk-D-w5EVYptJBroVGNK-23" value="&lt;b&gt;FNB Internal (DMZ)&lt;/b&gt;" style="text;html=1;strokeColor=none;fillColor=none;align=center;verticalAlign=middle;whiteSpace=wrap;rounded=0;" vertex="1" parent="1">
          <mxGeometry x="525" y="330" width="85" height="20" as="geometry" />
        </mxCell>
        <mxCell id="dk-D-w5EVYptJBroVGNK-26" value="PCI and &lt;br&gt;POPI data&lt;br&gt;(card no, expiry date, cardholder name and address" style="shape=note;whiteSpace=wrap;html=1;backgroundOutline=1;darkOpacity=0.05;align=left;" vertex="1" parent="1">
          <mxGeometry x="30" y="120" width="80" height="110" as="geometry" />
        </mxCell>
        <mxCell id="dk-D-w5EVYptJBroVGNK-27" value="" style="endArrow=none;dashed=1;html=1;dashPattern=1 3;strokeWidth=2;exitX=0;exitY=0;exitDx=60;exitDy=60;exitPerimeter=0;entryX=0;entryY=0.5;entryDx=0;entryDy=0;" edge="1" parent="1" source="dk-D-w5EVYptJBroVGNK-26" target="dk-D-w5EVYptJBroVGNK-9">
          <mxGeometry width="50" height="50" relative="1" as="geometry">
            <mxPoint x="110" y="210" as="sourcePoint" />
            <mxPoint x="160" y="160" as="targetPoint" />
          </mxGeometry>
        </mxCell>
        <mxCell id="dk-D-w5EVYptJBroVGNK-28" value="" style="endArrow=classic;html=1;exitX=1;exitY=0.5;exitDx=0;exitDy=0;" edge="1" parent="1" source="dk-D-w5EVYptJBroVGNK-9">
          <mxGeometry width="50" height="50" relative="1" as="geometry">
            <mxPoint x="280" y="180" as="sourcePoint" />
            <mxPoint x="410" y="160" as="targetPoint" />
          </mxGeometry>
        </mxCell>
        <mxCell id="dk-D-w5EVYptJBroVGNK-29" value="" style="endArrow=classic;html=1;exitX=0.5;exitY=1;exitDx=0;exitDy=0;" edge="1" parent="1" source="dk-D-w5EVYptJBroVGNK-8" target="dk-D-w5EVYptJBroVGNK-11">
          <mxGeometry width="50" height="50" relative="1" as="geometry">
            <mxPoint x="580" y="260" as="sourcePoint" />
            <mxPoint x="630" y="210" as="targetPoint" />
          </mxGeometry>
        </mxCell>
        <mxCell id="dk-D-w5EVYptJBroVGNK-30" value="&lt;b&gt;(HTTPS -&amp;nbsp; TLS1.2)&lt;/b&gt;" style="text;html=1;strokeColor=none;fillColor=none;align=center;verticalAlign=middle;whiteSpace=wrap;rounded=0;" vertex="1" parent="1">
          <mxGeometry x="530" y="230" width="110" height="20" as="geometry" />
        </mxCell>
        <mxCell id="dk-D-w5EVYptJBroVGNK-31" value="&lt;b&gt;Encrypted (AES 256): card no and expiry date, cardholder name and address&lt;/b&gt;" style="text;html=1;strokeColor=none;fillColor=none;align=center;verticalAlign=middle;whiteSpace=wrap;rounded=0;" vertex="1" parent="1">
          <mxGeometry x="440" y="270" width="280" height="30" as="geometry" />
        </mxCell>
        <mxCell id="dk-D-w5EVYptJBroVGNK-32" value="System&lt;br&gt;logs" style="shape=note;whiteSpace=wrap;html=1;backgroundOutline=1;darkOpacity=0.05;align=left;" vertex="1" parent="1">
          <mxGeometry x="230" y="600" width="70" height="70" as="geometry" />
        </mxCell>
        <mxCell id="dk-D-w5EVYptJBroVGNK-33" value="" style="endArrow=none;dashed=1;html=1;dashPattern=1 3;strokeWidth=2;exitX=0;exitY=0;exitDx=70;exitDy=50;exitPerimeter=0;entryX=0;entryY=0.5;entryDx=0;entryDy=0;" edge="1" parent="1" source="dk-D-w5EVYptJBroVGNK-32" target="dk-D-w5EVYptJBroVGNK-15">
          <mxGeometry width="50" height="50" relative="1" as="geometry">
            <mxPoint x="310" y="670" as="sourcePoint" />
            <mxPoint x="360" y="620" as="targetPoint" />
          </mxGeometry>
        </mxCell>
        <mxCell id="dk-D-w5EVYptJBroVGNK-34" value="" style="endArrow=none;dashed=1;html=1;dashPattern=1 3;strokeWidth=2;exitX=0.5;exitY=0;exitDx=0;exitDy=0;entryX=0.25;entryY=1;entryDx=0;entryDy=0;" edge="1" parent="1" source="dk-D-w5EVYptJBroVGNK-16" target="dk-D-w5EVYptJBroVGNK-11">
          <mxGeometry width="50" height="50" relative="1" as="geometry">
            <mxPoint x="460" y="550" as="sourcePoint" />
            <mxPoint x="510" y="500" as="targetPoint" />
            <Array as="points">
              <mxPoint x="485" y="540" />
              <mxPoint x="540" y="460" />
            </Array>
          </mxGeometry>
        </mxCell>
        <mxCell id="dk-D-w5EVYptJBroVGNK-35" value="" style="endArrow=classic;html=1;entryX=0.5;entryY=0;entryDx=0;entryDy=0;exitX=0.158;exitY=1;exitDx=0;exitDy=0;exitPerimeter=0;" edge="1" parent="1" source="dk-D-w5EVYptJBroVGNK-11" target="dk-D-w5EVYptJBroVGNK-15">
          <mxGeometry width="50" height="50" relative="1" as="geometry">
            <mxPoint x="410" y="450" as="sourcePoint" />
            <mxPoint x="460" y="400" as="targetPoint" />
            <Array as="points">
              <mxPoint x="529" y="450" />
              <mxPoint x="370" y="450" />
            </Array>
          </mxGeometry>
        </mxCell>
        <mxCell id="dk-D-w5EVYptJBroVGNK-36" value="" style="endArrow=classic;html=1;exitX=0.75;exitY=1;exitDx=0;exitDy=0;entryX=0.433;entryY=0;entryDx=0;entryDy=0;entryPerimeter=0;" edge="1" parent="1" source="dk-D-w5EVYptJBroVGNK-11" target="dk-D-w5EVYptJBroVGNK-17">
          <mxGeometry width="50" height="50" relative="1" as="geometry">
            <mxPoint x="600" y="490" as="sourcePoint" />
            <mxPoint x="600" y="560" as="targetPoint" />
          </mxGeometry>
        </mxCell>
        <mxCell id="dk-D-w5EVYptJBroVGNK-37" value="" style="endArrow=classic;html=1;exitX=0.917;exitY=1.05;exitDx=0;exitDy=0;exitPerimeter=0;entryX=0.5;entryY=0;entryDx=0;entryDy=0;" edge="1" parent="1" source="dk-D-w5EVYptJBroVGNK-11" target="dk-D-w5EVYptJBroVGNK-21">
          <mxGeometry width="50" height="50" relative="1" as="geometry">
            <mxPoint x="670" y="460" as="sourcePoint" />
            <mxPoint x="720" y="410" as="targetPoint" />
            <Array as="points">
              <mxPoint x="620" y="460" />
              <mxPoint x="690" y="460" />
              <mxPoint x="700" y="460" />
            </Array>
          </mxGeometry>
        </mxCell>
        <mxCell id="dk-D-w5EVYptJBroVGNK-38" value="Merchant data" style="shape=note;whiteSpace=wrap;html=1;backgroundOutline=1;darkOpacity=0.05;align=left;" vertex="1" parent="1">
          <mxGeometry x="370" y="630" width="70" height="60" as="geometry" />
        </mxCell>
        <mxCell id="dk-D-w5EVYptJBroVGNK-39" value="" style="endArrow=none;dashed=1;html=1;dashPattern=1 3;strokeWidth=2;entryX=0;entryY=0.75;entryDx=0;entryDy=0;" edge="1" parent="1" target="dk-D-w5EVYptJBroVGNK-16">
          <mxGeometry width="50" height="50" relative="1" as="geometry">
            <mxPoint x="420" y="640" as="sourcePoint" />
            <mxPoint x="470" y="590" as="targetPoint" />
          </mxGeometry>
        </mxCell>
        <mxCell id="dk-D-w5EVYptJBroVGNK-40" value="Uers&lt;br&gt;Role&amp;nbsp;&lt;br&gt;AD group" style="shape=note;whiteSpace=wrap;html=1;backgroundOutline=1;darkOpacity=0.05;align=left;" vertex="1" parent="1">
          <mxGeometry x="540" y="630" width="60" height="60" as="geometry" />
        </mxCell>
        <mxCell id="dk-D-w5EVYptJBroVGNK-41" value="" style="endArrow=none;dashed=1;html=1;dashPattern=1 3;strokeWidth=2;exitX=0.133;exitY=-0.033;exitDx=0;exitDy=0;exitPerimeter=0;entryX=0;entryY=0.5;entryDx=0;entryDy=0;" edge="1" parent="1" source="dk-D-w5EVYptJBroVGNK-40" target="dk-D-w5EVYptJBroVGNK-17">
          <mxGeometry width="50" height="50" relative="1" as="geometry">
            <mxPoint x="540" y="640" as="sourcePoint" />
            <mxPoint x="590" y="590" as="targetPoint" />
          </mxGeometry>
        </mxCell>
        <mxCell id="dk-D-w5EVYptJBroVGNK-42" value="&lt;b&gt;Encrypted (AES 256):&lt;/b&gt; Card No &amp;amp; Expiry date, Cardholder name and address" style="shape=note;whiteSpace=wrap;html=1;backgroundOutline=1;darkOpacity=0.05;align=left;" vertex="1" parent="1">
          <mxGeometry x="670" y="590" width="120" height="100" as="geometry" />
        </mxCell>
        <mxCell id="dk-D-w5EVYptJBroVGNK-43" value="" style="endArrow=none;dashed=1;html=1;dashPattern=1 3;strokeWidth=2;entryX=0.75;entryY=1;entryDx=0;entryDy=0;exitX=0.2;exitY=0.01;exitDx=0;exitDy=0;exitPerimeter=0;" edge="1" parent="1" source="dk-D-w5EVYptJBroVGNK-42" target="dk-D-w5EVYptJBroVGNK-21">
          <mxGeometry width="50" height="50" relative="1" as="geometry">
            <mxPoint x="690" y="610" as="sourcePoint" />
            <mxPoint x="740" y="560" as="targetPoint" />
          </mxGeometry>
        </mxCell>
        <mxCell id="dk-D-w5EVYptJBroVGNK-44" value="&lt;b&gt;Note:&lt;/b&gt;&lt;br&gt;Tokenization couldn&#39;t be applied because of the unavailability of the detokenization functionality." style="shape=note;whiteSpace=wrap;html=1;backgroundOutline=1;darkOpacity=0.05;" vertex="1" parent="1">
          <mxGeometry x="60" y="550" width="120" height="110" as="geometry" />
        </mxCell>
      </root>
    </mxGraphModel>
  </diagram>
</mxfile>
